HIERARCHY
ROOT RootJoint
{
    OFFSET   0.000000   0.000000   0.000000
    CHANNELS 6 Xposition Yposition Zposition Xrotation Yrotation Zrotation
    JOINT pelvis_lowerback
    {
        OFFSET   0.000000   0.093605   0.000000
        CHANNELS 3 Xrotation Yrotation Zrotation
        JOINT lowerback_torso
        {
            OFFSET   0.000000   0.100000   0.000000
            CHANNELS 3 Xrotation Yrotation Zrotation
            JOINT torso_head
            {
                OFFSET   0.000000   0.282350   0.000000
                CHANNELS 3 Xrotation Yrotation Zrotation
                End Site
                {
                    OFFSET   0.000000   0.192650   0.000000
                }
            }
            JOINT rTorso_Clavicle
            {
                OFFSET  -0.001000   0.157500   0.000000
                CHANNELS 3 Xrotation Yrotation Zrotation
                JOINT rShoulder
                {
                    OFFSET  -0.117647   0.000000   0.000000
                    CHANNELS 3 Xrotation Yrotation Zrotation
                    JOINT rElbow
                    {
                        OFFSET  -0.245000   0.000000   0.000000
                        CHANNELS 3 Xrotation Yrotation Zrotation
                        JOINT rWrist
                        {
                            OFFSET  -0.240000   0.000000   0.000000
                            CHANNELS 3 Xrotation Yrotation Zrotation
                            End Site
                            {
                                OFFSET  -0.116353  -0.002500   0.000000
                            }
                        }
                    }
                }
            }
            JOINT lTorso_Clavicle
            {
                OFFSET   0.001000   0.157500   0.000000
                CHANNELS 3 Xrotation Yrotation Zrotation
                JOINT lShoulder
                {
                    OFFSET   0.117647   0.000000   0.000000
                    CHANNELS 3 Xrotation Yrotation Zrotation
                    JOINT lElbow
                    {
                        OFFSET   0.245000   0.000000   0.000000
                        CHANNELS 3 Xrotation Yrotation Zrotation
                        JOINT lWrist
                        {
                            OFFSET   0.240000   0.000000   0.000000
                            CHANNELS 3 Xrotation Yrotation Zrotation
                            End Site
                            {
                                OFFSET   0.116353  -0.002500   0.000000
                            }
                        }
                    }
                }
            }
        }
    }
    JOINT rHip
    {
        OFFSET  -0.100000  -0.051395   0.000000
        CHANNELS 3 Xrotation Yrotation Zrotation
        JOINT rKnee
        {
            OFFSET   0.000000  -0.410000   0.000000
            CHANNELS 3 Xrotation Yrotation Zrotation
            JOINT rAnkle
            {
                OFFSET   0.000000  -0.390000   0.000000
                CHANNELS 3 Xrotation Yrotation Zrotation
                JOINT rToeJoint
                {
                    OFFSET   0.000000  -0.050000   0.130000
                    CHANNELS 3 Xrotation Yrotation Zrotation
                    End Site
                    {
                        OFFSET  -0.010000   0.002000   0.060000
                    }
                }
            }
        }
    }
    JOINT lHip
    {
        OFFSET   0.100000  -0.051395   0.000000
        CHANNELS 3 Xrotation Yrotation Zrotation
        JOINT lKnee
        {
            OFFSET   0.000000  -0.410000   0.000000
            CHANNELS 3 Xrotation Yrotation Zrotation
            JOINT lAnkle
            {
                OFFSET   0.000000  -0.390000   0.000000
                CHANNELS 3 Xrotation Yrotation Zrotation
                JOINT lToeJoint
                {
                    OFFSET   0.000000  -0.050000   0.130000
                    CHANNELS 3 Xrotation Yrotation Zrotation
                    End Site
                    {
                        OFFSET   0.010000   0.002000   0.060000
                    }
                }
            }
        }
    }
}
MOTION
Frames: 17
Frame Time:   0.008333
 -2.402096   0.923289   5.052661  -4.770728   3.320371  -1.672164   7.455087  -3.233784  -1.946815   3.638147  -1.538667   0.757617   2.826561   0.866170   1.645594   6.542525  -8.294965  -1.829076  18.224226  10.435270  59.272580   0.000450  25.812745  -0.001341   3.957966   3.249549   2.146890   2.182692   2.897733   0.331360   1.416842  -7.682901 -54.492044   0.000883 -41.457664   0.003798   1.782429  -5.592172   2.708767 -24.418077  -7.492014  -6.626034  42.906740   0.000070  -0.020218  -4.358816 -16.135644   4.764061  -3.640670  -0.004737   0.001732  12.415655   1.412368  -1.048436   3.460763  -0.000068  -0.000428  -6.244073   4.787327   4.259904  -7.969560  -0.001616  -0.002561
 -2.402291   0.923445   5.059493  -4.722961   3.449410  -1.575302   7.427497  -3.344078  -1.997480   3.633503  -1.588236   0.678414   2.838449   0.924010   1.631002   6.579799  -8.449696  -1.780057  18.346786  10.252869  59.214968   0.000479  25.648700  -0.001418   3.954986   3.255334   2.139720   2.158659   2.789833   0.345693   1.209349  -7.902362 -54.397622   0.000807 -41.664454   0.003422   1.820394  -5.676243   2.672725 -24.450630  -7.402496  -6.663932  40.068858   0.000110  -0.020997  -4.323488 -16.056761   4.938943  -3.462634  -0.005268   0.002111  12.714657   1.528768  -1.080229   3.605267  -0.000092   0.000003  -6.027943   4.683658   4.058158  -9.044766  -0.001882  -0.003264
 -2.402483   0.923489   5.066337  -4.652994   3.553174  -1.452946   7.384533  -3.437381  -2.065815   3.617131  -1.631740   0.589360   2.847711   0.979686   1.613361   6.618173  -8.599468  -1.735418  18.464665  10.080002  59.162676   0.000486  25.494110  -0.001441   3.951405   3.254268   2.129510   2.137568   2.691073   0.366011   1.017600  -8.105921 -54.306114   0.000713 -41.854429   0.003060   1.856965  -5.735620   2.637257 -24.474089  -7.298535  -6.725136  37.266259   0.000396  -0.021100  -4.295626 -15.979755   5.101844  -3.282453  -0.005664   0.002403  12.989034   1.643143  -1.143078   3.758384  -0.000114   0.000343  -5.822988   4.585303   3.870500 -10.109878  -0.001976  -0.003713
 -2.402690   0.923423   5.073202  -4.574360   3.636666  -1.323023   7.339402  -3.520241  -2.136192   3.597087  -1.669325   0.499476   2.854897   1.031847   1.595305   6.654380  -8.739850  -1.696446  18.575259   9.917693  59.112587   0.000476  25.349549  -0.001418   3.947977   3.250741   2.116763   2.119288   2.601315   0.387293   0.840388  -8.294425 -54.219344   0.000623 -42.030885   0.002737   1.891623  -5.785191   2.607752 -24.506893  -7.196494  -6.793222  34.620941   0.000983  -0.020409  -4.271502 -15.907154   5.253310  -3.119011  -0.005778   0.002533  13.259369   1.748068  -1.214397   3.909971  -0.000138   0.000577  -5.641109   4.489107   3.692804 -11.141735  -0.001964  -0.003853
 -2.402962   0.922959   5.080068  -4.483733   3.744545  -1.246449   7.294978  -3.606900  -2.158839   3.575882  -1.709727   0.434034   2.859914   1.079995   1.579613   6.691770  -8.874638  -1.681836  18.683360   9.762399  59.058855   0.000470  25.215326  -0.001350   3.944012   3.253581   2.104366   2.100502   2.516483   0.420364   0.673069  -8.473077 -54.139965   0.000511 -42.200086   0.002445   1.925272  -5.847582   2.573993 -24.550842  -7.110137  -6.820795  32.160641   0.001261  -0.020127  -4.250129 -15.838902   5.394528  -2.977038  -0.005623   0.002580  13.514028   1.861381  -1.235635   4.130319  -0.000160   0.000941  -5.292879   4.413087   3.547730 -13.818992  -0.001387  -0.005848
 -2.403219   0.922604   5.086993  -4.389042   3.827616  -1.103819   7.245696  -3.681206  -2.240171   3.554425  -1.744791   0.352055   2.866182   1.125305   1.564974   6.724452  -8.999163  -1.639875  18.780890   9.618974  59.014367   0.000427  25.086717  -0.001264   3.941515   3.237151   2.080953   2.084942   2.439820   0.437720   0.520125  -8.634606 -54.058363   0.000435 -42.350681   0.002164   1.957332  -5.883633   2.560446 -24.600687  -7.013835  -6.910263  29.855134   0.001799  -0.018859  -4.230144 -15.774833   5.525678  -2.844057  -0.005382   0.002524  13.800288   1.960823  -1.319140   4.256563  -0.000168   0.001005  -5.264743   4.335490   3.375442 -14.364218  -0.001265  -0.005310
 -2.403503   0.922271   5.093950  -4.283985   3.902396  -0.963621   7.196077  -3.748718  -2.310831   3.530745  -1.775781   0.271275   2.871115   1.167501   1.549199   6.753493  -9.114552  -1.599019  18.869835   9.486844  58.976586   0.000368  24.968075  -0.001156   3.938732   3.225632   2.064646   2.073539   2.369364   0.448891   0.379698  -8.785680 -53.988252   0.000384 -42.490915   0.001922   1.987387  -5.911682   2.542568 -24.652445  -6.925147  -6.989675  27.705935   0.002426  -0.017452  -4.211870 -15.714962   5.647756  -2.724573  -0.005054   0.002408  14.072195   2.043572  -1.396546   4.382716  -0.000182   0.001030  -5.185465   4.249932   3.218535 -15.031341  -0.001117  -0.004800
 -2.403835   0.922002   5.101022  -4.195244   4.002879  -0.850017   7.104608  -3.789675  -2.353471   3.581234  -1.821978   0.207871   2.895688   1.217734   1.513676   6.754458  -9.240226  -1.526881  18.892529   9.293171  58.902802   0.000360  24.860648  -0.001125   3.927445   3.168976   2.100874   2.050569   2.256585   0.433707   0.198101  -8.926311 -53.937476   0.000299 -42.464931   0.001509   2.023177  -5.963352   2.532993 -24.547480  -6.819430  -7.015104  25.480428   0.002820  -0.017751  -4.073544 -15.529569   5.756677  -2.609013  -0.004710   0.002488  14.299927   2.109303  -1.426186   4.628304  -0.000264   0.001267  -5.085928   4.172734   2.982000 -15.855600  -0.001445  -0.004685
 -2.404193   0.921701   5.108155  -4.096618   4.085988  -0.735889   7.004750  -3.814401  -2.395068   3.624403  -1.858543   0.145710   2.921315   1.265887   1.480200   6.746845  -9.352989  -1.463978  18.905931   9.114396  58.828528   0.000351  24.763204  -0.001063   3.913962   3.122213   2.119843   2.031230   2.148165   0.413549   0.030000  -9.058048 -53.894635   0.000231 -42.434918   0.001179   2.055175  -5.967494   2.516057 -24.418108  -6.718654  -7.025939  23.388417   0.003438  -0.017497  -3.945156 -15.353822   5.857768  -2.496146  -0.004378   0.002503  14.507147   2.168284  -1.455988   4.897660  -0.000354   0.001448  -4.970233   4.094403   2.763322 -16.757071  -0.001626  -0.004468
 -2.404578   0.921345   5.115339  -3.983036   4.154354  -0.623204   6.899504  -3.828891  -2.433823   3.655425  -1.885229   0.085163   2.944104   1.310946   1.449087   6.734089  -9.453360  -1.410085  18.913204   8.949627  58.755773   0.000337  24.674645  -0.000981   3.900512   3.089699   2.127945   2.015563   2.048358   0.392254  -0.124939  -9.180764 -53.857601   0.000178 -42.406275   0.000920   2.085252  -5.961387   2.493477 -24.281367  -6.627898  -7.024563  21.444241   0.004142  -0.016728  -3.825907 -15.189254   5.951234  -2.394925  -0.004012   0.002424  14.700527   2.220938  -1.484847   5.168102  -0.000438   0.001549  -4.846512   4.016379   2.561390 -17.700065  -0.001671  -0.004154
 -2.404992   0.920919   5.122562  -3.852420   4.213096  -0.512323   6.790468  -3.836321  -2.469581   3.675286  -1.904371   0.027355   2.963901   1.352972   1.420160   6.717672  -9.543091  -1.363316  18.915780   8.797562  58.685290   0.000319  24.593895  -0.000886   3.887218   3.069226   2.128271   2.002503   1.956563   0.371383  -0.268207  -9.294942 -53.824581   0.000139 -42.379367   0.000717   2.113884  -5.953602   2.468788 -24.141003  -6.546441  -7.013480  19.639832   0.004802  -0.015667  -3.714927 -15.035296   6.037726  -2.304071  -0.003635   0.002288  14.881470   2.267976  -1.512314   5.432467  -0.000511   0.001589  -4.720917   3.939254   2.374506 -18.664286  -0.001606  -0.003796
 -2.405434   0.920417   5.129817  -3.703631   4.265812  -0.402824   6.679092  -3.838557  -2.502566   3.685593  -1.917782  -0.027175   2.981035   1.392150   1.393221   6.698662  -9.623654  -1.322078  18.914694   8.657116  58.617686   0.000295  24.520089  -0.000785   3.874137   3.058456   2.122963   1.991227   1.871906   0.351722  -0.401113  -9.401205 -53.794478   0.000109 -42.354223   0.000557   2.141247  -5.946075   2.444181 -23.998506  -6.473036  -6.995244  17.964980   0.005354  -0.014469  -3.611576 -14.891306   6.117809  -2.222283  -0.003263   0.002119  15.050320   2.310194  -1.538817   5.687537  -0.000571   0.001588  -4.597392   3.863486   2.201265 -19.636841  -0.001456  -0.003432
 -2.405902   0.919835   5.137100  -3.535976   4.314672  -0.294181   6.566657  -3.836763  -2.532965   3.687928  -1.926680  -0.078207   2.995863   1.428680   1.368091   6.677851  -9.696219  -1.285174  18.910734   8.527346  58.553351   0.000267  24.452509  -0.000683   3.861322   3.055533   2.113701   1.981246   1.793704   0.333611  -0.524647  -9.500112 -53.766631   0.000086 -42.330780   0.000432   2.167439  -5.939295   2.420836 -23.854724  -6.406639  -6.971897  16.410032   0.005773  -0.013232  -3.515291 -14.756664   6.191994  -2.148466  -0.002907   0.001936  15.207203   2.348232  -1.564958   5.931543  -0.000617   0.001560  -4.478429   3.789366   2.040463 -20.609085  -0.001243  -0.003084
 -2.406490   0.919344   5.144749  -3.491139   4.402735  -0.259855   6.465436  -3.861916  -2.507337   3.805736  -1.950889  -0.085661   3.021450   1.454831   1.358757   6.657406  -9.782370  -1.212227  18.786103   8.364819  58.440638   0.000280  24.375376  -0.000685   3.819029   3.007972   2.129122   1.977817   1.691222   0.306856  -0.618419  -9.547150 -53.812544  -0.000030 -42.195780   0.000242   2.184551  -5.998657   2.455014 -23.499952  -6.287975  -6.843407  15.154275   0.005821  -0.013367  -3.320843 -14.574739   6.164372  -2.122145  -0.002383   0.001667  15.442133   2.277943  -1.468976   6.292548  -0.000851   0.001392  -4.356409   3.719224   1.818901 -21.708055  -0.001618  -0.002137
 -2.407131   0.918862   5.152598  -3.446339   4.483305  -0.237241   6.337041  -3.878916  -2.478220   3.914908  -1.967759  -0.086194   3.048541   1.478021   1.354873   6.633023  -9.864782  -1.142725  18.664542   8.214063  58.332176   0.000284  24.305129  -0.000675   3.774997   2.966646   2.122679   1.997848   1.608066   0.263045  -0.685344  -9.583478 -53.870927  -0.000133 -42.059121   0.000125   2.198300  -6.001269   2.450031 -23.092475  -6.180151  -6.688843  14.052388   0.005853  -0.013063  -3.134906 -14.403837   6.138319  -2.086276  -0.001974   0.001480  15.666435   2.207554  -1.357491   6.690060  -0.001097   0.001240  -4.202660   3.649586   1.615344 -22.904357  -0.001780  -0.001189
 -2.407812   0.918335   5.160571  -3.380051   4.554938  -0.215906   6.186477  -3.885338  -2.451714   3.999223  -1.974874  -0.087603   3.070181   1.499306   1.352710   6.608555  -9.942252  -1.078136  18.549219   8.074480  58.231514   0.000280  24.241094  -0.000648   3.731955   2.937142   2.112351   2.029336   1.540515   0.213273  -0.736307  -9.612688 -53.933359  -0.000198 -41.927670   0.000076   2.210141  -5.978204   2.419442 -22.663543  -6.085271  -6.524761  13.054915   0.005857  -0.012438  -2.960088 -14.244385   6.113428  -2.051475  -0.001637   0.001313  15.871709   2.143570  -1.246684   7.092138  -0.001305   0.001117  -4.027479   3.582927   1.430838 -24.150901  -0.001732  -0.000369
 -2.408527   0.917727   5.168618  -3.286829   4.619762  -0.192597   6.020600  -3.882668  -2.429191   4.059520  -1.973755  -0.090943   3.086306   1.519072   1.350955   6.583336 -10.013330  -1.018768  18.439124   7.945714  58.137630   0.000271  24.182905  -0.000607   3.690117   2.918887   2.101185   2.065287   1.483737   0.163370  -0.777843  -9.637064 -53.995135  -0.000225 -41.803210   0.000070   2.220717  -5.944931   2.378640 -22.226933  -6.000867  -6.358517  12.142852   0.005812  -0.011634  -2.796278 -14.095678   6.089641  -2.018764  -0.001358   0.001159  16.057925   2.084739  -1.140705   7.485077  -0.001465   0.001018  -3.844084   3.518019   1.262983 -25.412957  -0.001539   0.000314
